<svg xmlns="http://www.w3.org/2000/svg" viewBox="0 0 800 800"><path d="M659.897 429.647c1.651-13.487 9.492-23.554 13.294-35.65 7.6-24.186 12.87-49.125 17.523-76.137 4.544-26.38-3.597-53.038-8.46-72.51-20.14-80.647-61.9-125.831-123.268-164.357-17.629-11.068-45.626-30.583-68.28-34.443-2.674-10.736-3.926-13.74-6.647-13.898-9.006-.034-22.883 4.512-25.379 4.23l-24.774-10.876C405.62 14.403 374.625-.664 336.62.023c-2.654-.023-4.99 3.044-6.042 6.042-.68 3.104-1.585 7.625.148 11.24 2.504 3.457 5.604 7.856 10.124 9.305l-38.672 10.876c-24.34 9.49-48.82 20.3-68.885 34.443-58.555 41.271-99.313 97.789-118.434 178.86-6.44 27.305-9.744 73.931-3.021 104.535 6.969 31.727 13.696 55.604 24.17 81.574-16.34 8.36-23.901 31.151-18.128 57.405 3.942 17.923 13.793 28.665 19.336 44.11 11.42 31.817 6.632 78.054 49.55 77.949 1.87 11.742 6.207 23 11.463 33.567-.08.043-.163.076-.243.121a12 12 0 0 0-4.562 16.346c3.672 6.517 7.408 12.558 11.02 18.4q1.324 2.141 2.601 4.217c13.496 21.97 36.89 53.737 71.703 80.314a11.998 11.998 0 0 0 16.82-2.256c.116-.152.214-.312.321-.468 45.014 30.7 102.622 46.264 168.833 20.158 59.614-23.506 102.782-59.802 133.54-112.391 6.917-11.827 12.604-26.132 16.919-39.881l4.23-17.523c2.099-1.802 4.934-.437 8.46-1.209 5.82-1.274 11.339-6.201 14.502-10.272 15.445-19.877 15.494-41.843 25.379-67.677 5.91-15.445 16.316-27.37 21.148-44.715 8.057-28.913-4.057-61.54-29.004-63.446z" fill="#231f20"/></svg>