<svg xmlns="http://www.w3.org/2000/svg" viewBox="0 0 1 1"><path d="M.825.537A.233.233 0 0 1 .84.492.721.721 0 0 0 .863.397a.22.22 0 0 0-.01-.09A.316.316 0 0 0 .699.1.282.282 0 0 0 .613.058C.61.045.608.041.605.041.594.04.576.046.573.046L.543.033A.298.298 0 0 0 .42 0L.413.008a.022.022 0 0 0 0 .014.028.028 0 0 0 .013.011L.378.047A.405.405 0 0 0 .29.09a.362.362 0 0 0-.147.224.346.346 0 0 0-.004.13.601.601 0 0 0 .03.102.063.063 0 0 0-.023.072.405.405 0 0 0 .024.055c.016.04.01.098.063.097a.149.149 0 0 0 .015.042.015.015 0 0 0-.006.02l.013.024.004.005a.377.377 0 0 0 .09.1l.009.003A.015.015 0 0 0 .369.96a.218.218 0 0 0 .212.025.32.32 0 0 0 .167-.141.247.247 0 0 0 .02-.05L.775.771.784.77a.036.036 0 0 0 .02-.013.302.302 0 0 0 .031-.085A.567.567 0 0 0 .86.616C.871.58.856.54.825.537z" fill="#231f20"/></svg>